<svg xmlns="http://www.w3.org/2000/svg" width="1600" height="900" viewBox="0 0 1600 900">

  <defs>
    <linearGradient id="goldGradient" x1="0%" y1="0%" x2="100%" y2="100%">
      <stop offset="0%" stop-color="#F2D98B"/>
      <stop offset="45%" stop-color="#D8B35A"/>
      <stop offset="100%" stop-color="#9A7134"/>
    </linearGradient>
    <linearGradient id="darkGradient" x1="0%" y1="0%" x2="100%" y2="100%">
      <stop offset="0%" stop-color="#0B171D"/>
      <stop offset="100%" stop-color="#071014"/>
    </linearGradient>
    <linearGradient id="signalGradient" x1="0%" y1="0%" x2="100%" y2="100%">
      <stop offset="0%" stop-color="#48D6C8"/>
      <stop offset="50%" stop-color="#3E7BFF"/>
      <stop offset="100%" stop-color="#6F5BFF"/>
    </linearGradient>
    <filter id="softShadow" x="-30%" y="-30%" width="160%" height="160%">
      <feDropShadow dx="0" dy="18" stdDeviation="16" flood-color="#000000" flood-opacity="0.28"/>
    </filter>
    <filter id="goldGlow" x="-60%" y="-60%" width="220%" height="220%">
      <feGaussianBlur stdDeviation="5" result="blur"/>
      <feColorMatrix in="blur" type="matrix" values="1 0 0 0 0.85  0 1 0 0 0.67  0 0 1 0 0.26  0 0 0 0.35 0" result="glow"/>
      <feMerge><feMergeNode in="glow"/><feMergeNode in="SourceGraphic"/></feMerge>
    </filter>
  </defs>
<rect width="1600" height="900" fill="#071014"/>
<g opacity="0.16" stroke="url(#goldGradient)" stroke-width="1.4">
<path d="M80 0 V900"/>
<path d="M240 0 V900"/>
<path d="M400 0 V900"/>
<path d="M560 0 V900"/>
<path d="M720 0 V900"/>
<path d="M880 0 V900"/>
<path d="M1040 0 V900"/>
<path d="M1200 0 V900"/>
<path d="M1360 0 V900"/>
<path d="M1520 0 V900"/>
<path d="M0 60 H1600"/>
<path d="M0 180 H1600"/>
<path d="M0 300 H1600"/>
<path d="M0 420 H1600"/>
<path d="M0 540 H1600"/>
<path d="M0 660 H1600"/>
<path d="M0 780 H1600"/>
</g>
<g opacity="0.08" fill="none" stroke="url(#signalGradient)" stroke-width="2">
  <path d="M200 450 C420 120 760 760 1040 240 C1210 -60 1430 180 1520 450"/>
  <path d="M80 740 C400 520 680 880 940 560 C1160 290 1360 660 1540 500"/>
</g>
<g transform="translate(1070 260) scale(0.7)" opacity="0.28">
  <path d="M256 64 L422 160 L422 352 L256 448 L90 352 L90 160 Z" fill="none" stroke="url(#goldGradient)" stroke-width="12" stroke-linejoin="round"/>
  <rect x="176" y="166" width="32" height="180" rx="16" fill="url(#goldGradient)"/>
  <path d="M236 346 L256 166 L276 346 Z" fill="url(#goldGradient)"/>
  <rect x="304" y="166" width="32" height="180" rx="16" fill="url(#goldGradient)"/>
</g>
</svg>