<svg xmlns="http://www.w3.org/2000/svg" width="1600" height="600" viewBox="0 0 1600 600" role="img" aria-label="Computer.iai.one brand mark">
  <defs>
    <linearGradient id="gNavy" x1="0" y1="0" x2="1" y2="1"><stop offset="0" stop-color="#06111F"/><stop offset="0.55" stop-color="#081A2E"/><stop offset="1" stop-color="#1D4F7A"/></linearGradient>
    <linearGradient id="gGold" x1="0" y1="0" x2="1" y2="1"><stop offset="0" stop-color="#F3DFA2"/><stop offset="1" stop-color="#D9B56D"/></linearGradient>
    <linearGradient id="gCyan" x1="0" y1="0" x2="1" y2="1"><stop offset="0" stop-color="#8BDFFF"/><stop offset="1" stop-color="#38BDF8"/></linearGradient>
    <filter id="softGlow" x="-50%" y="-50%" width="200%" height="200%"><feGaussianBlur stdDeviation="12" result="blur"/><feColorMatrix in="blur" type="matrix" values="0 0 0 0 0.21 0 0 0 0 0.74 0 0 0 0 0.97 0 0 0 0.45 0"/><feBlend in="SourceGraphic"/></filter>
    <filter id="shadow" x="-20%" y="-20%" width="140%" height="140%"><feDropShadow dx="0" dy="18" stdDeviation="18" flood-color="#06111F" flood-opacity="0.22"/></filter>
    <pattern id="grid" width="32" height="32" patternUnits="userSpaceOnUse"><path d="M32 0H0V32" fill="none" stroke="rgba(255,255,255,.08)" stroke-width="1"/></pattern>
  </defs>
  
  
  <rect width="1600" height="600" rx="0" fill="#FFFFFF"/>
  <g transform="translate(90 44)">
  <g transform="translate(35.84 35.84) scale(0.86)" filter="url(#shadow)">
    <rect x="88" y="72" width="336" height="336" rx="74" fill="url(#gNavy)" stroke="url(#gGold)" stroke-width="10"/>
    <rect x="116" y="100" width="280" height="280" rx="54" fill="none" stroke="rgba(255,255,255,.12)" stroke-width="2"/>
    <path d="M150 346C190 280 226 222 262 166C298 222 334 280 374 346" fill="none" stroke="url(#gCyan)" stroke-width="16" stroke-linecap="round" stroke-linejoin="round" filter="url(#softGlow)"/>
    <path d="M190 340V178" stroke="#D9B56D" stroke-width="18" stroke-linecap="round"/>
    <path d="M256 340V178" stroke="#D9B56D" stroke-width="18" stroke-linecap="round"/>
    <path d="M322 340V178" stroke="#D9B56D" stroke-width="18" stroke-linecap="round"/>
    <circle cx="190" cy="178" r="9" fill="#38BDF8"/>
    <circle cx="256" cy="178" r="9" fill="#38BDF8"/>
    <circle cx="322" cy="178" r="9" fill="#38BDF8"/>
    <path d="M120 246C162 214 205 198 256 198C307 198 350 214 392 246" fill="none" stroke="rgba(243,223,162,.45)" stroke-width="3"/>
    <circle cx="120" cy="246" r="7" fill="url(#gGold)"/>
    <circle cx="392" cy="246" r="7" fill="url(#gGold)"/>
    <circle cx="256" cy="408" r="14" fill="url(#gGold)"/>
    <path d="M256 408V444" stroke="url(#gGold)" stroke-width="8" stroke-linecap="round"/>
  </g></g>
  <text x="565" y="235" font-family="Source Serif 4, Fraunces, Georgia, serif" font-size="104" font-weight="700" fill="#FFFFFF">Computer</text>
  <text x="565" y="333" font-family="Inter, Arial, sans-serif" font-size="58" font-weight="700" letter-spacing="4" fill="#1D4F7A">IAI.ONE</text>
  <text x="565" y="405" font-family="Inter, Arial, sans-serif" font-size="28" fill="#EFE4CF">Personal AI Computer Infrastructure</text>
  <path d="M565 452H1195" stroke="url(#gGold)" stroke-width="4" stroke-linecap="round"/>
  <text x="565" y="500" font-family="Inter, Arial, sans-serif" font-size="22" letter-spacing="2" fill="#EFE4CF">A SYNCHRONIZED IAI.ONE SYSTEM</text>

</svg>