<svg xmlns="http://www.w3.org/2000/svg" width="1200" height="630" viewBox="0 0 1200 630" fill="none"><defs>
<radialGradient id="bg" cx="30%" cy="22%" r="90%"><stop offset="0%" stop-color="#151C2C"/><stop offset="62%" stop-color="#0E1422"/><stop offset="100%" stop-color="#080B12"/></radialGradient>
<linearGradient id="gold" x1="0" y1="0" x2="1200" y2="630"><stop offset="0%" stop-color="#F3D995"/><stop offset="52%" stop-color="#D7B46A"/><stop offset="100%" stop-color="#9E7B34"/></linearGradient>
<linearGradient id="signal" x1="0" y1="0" x2="1200" y2="630"><stop offset="0%" stop-color="#5EEAD4"/><stop offset="50%" stop-color="#4EA3FF"/><stop offset="100%" stop-color="#8B5CF6"/></linearGradient>
</defs><rect width="1200" height="630" rx="44" fill="url(#bg)"/>
<g opacity=".08"><line x1="0" y1="0" x2="0" y2="630" stroke="#fff"/><line x1="64" y1="0" x2="64" y2="630" stroke="#fff"/><line x1="128" y1="0" x2="128" y2="630" stroke="#fff"/><line x1="192" y1="0" x2="192" y2="630" stroke="#fff"/><line x1="256" y1="0" x2="256" y2="630" stroke="#fff"/><line x1="320" y1="0" x2="320" y2="630" stroke="#fff"/><line x1="384" y1="0" x2="384" y2="630" stroke="#fff"/><line x1="448" y1="0" x2="448" y2="630" stroke="#fff"/><line x1="512" y1="0" x2="512" y2="630" stroke="#fff"/><line x1="576" y1="0" x2="576" y2="630" stroke="#fff"/><line x1="640" y1="0" x2="640" y2="630" stroke="#fff"/><line x1="704" y1="0" x2="704" y2="630" stroke="#fff"/><line x1="768" y1="0" x2="768" y2="630" stroke="#fff"/><line x1="832" y1="0" x2="832" y2="630" stroke="#fff"/><line x1="896" y1="0" x2="896" y2="630" stroke="#fff"/><line x1="960" y1="0" x2="960" y2="630" stroke="#fff"/><line x1="1024" y1="0" x2="1024" y2="630" stroke="#fff"/><line x1="1088" y1="0" x2="1088" y2="630" stroke="#fff"/><line x1="1152" y1="0" x2="1152" y2="630" stroke="#fff"/><line x1="0" y1="0" x2="1200" y2="0" stroke="#fff"/><line x1="0" y1="64" x2="1200" y2="64" stroke="#fff"/><line x1="0" y1="128" x2="1200" y2="128" stroke="#fff"/><line x1="0" y1="192" x2="1200" y2="192" stroke="#fff"/><line x1="0" y1="256" x2="1200" y2="256" stroke="#fff"/><line x1="0" y1="320" x2="1200" y2="320" stroke="#fff"/><line x1="0" y1="384" x2="1200" y2="384" stroke="#fff"/><line x1="0" y1="448" x2="1200" y2="448" stroke="#fff"/><line x1="0" y1="512" x2="1200" y2="512" stroke="#fff"/><line x1="0" y1="576" x2="1200" y2="576" stroke="#fff"/></g>
<text x="78" y="205" fill="#F8F5EC" font-family="Inter,Arial,sans-serif" font-size="88" font-weight="850" letter-spacing="-2">Computer.iai.one</text>
<text x="82" y="282" fill="url(#gold)" font-family="Inter,Arial,sans-serif" font-size="36" font-weight="700" letter-spacing="3">GOLDEN RATIO AI COMPUTER IDENTITY</text>
<text x="82" y="358" fill="#EEF2F6" font-family="Inter,Arial,sans-serif" font-size="38" font-weight="500">Self-Upgrading Personal AI Computer System</text>
<text x="82" y="414" fill="#8A94A7" font-family="Inter,Arial,sans-serif" font-size="25" font-weight="500">Data Vault · Agent Team · Verification Engine · Security Kernel</text>
<line x1="82" y1="462" x2="685" y2="462" stroke="url(#signal)" stroke-width="4"/>
<g transform="translate(760,105) scale(.40)"><circle cx="500" cy="500" r="420" stroke="url(#gold)" stroke-width="16" opacity=".96"/>
<polygon points="500.0,193.7 765.3,346.9 765.3,653.1 500.0,806.3 234.7,653.1 234.7,346.9" stroke="url(#gold)" stroke-width="10" fill="none" opacity=".80"/>
<circle cx="500" cy="500" r="259.5742752749558" stroke="#D7B46A" stroke-width="3" opacity=".32"/>
<circle cx="500" cy="500" r="160.42572472504415" stroke="#5EEAD4" stroke-width="3" opacity=".28"/>
<circle cx="240.4" cy="500.0" r="10" fill="url(#signal)" opacity=".9"/>
<circle cx="759.6" cy="500.0" r="10" fill="url(#signal)" opacity=".9"/>
<circle cx="500.0" cy="240.4" r="8" fill="url(#signal)" opacity=".9"/>
<circle cx="500.0" cy="759.6" r="8" fill="url(#signal)" opacity=".9"/>
<circle cx="339.6" cy="400.9" r="6" fill="url(#signal)" opacity=".9"/>
<circle cx="660.4" cy="599.1" r="6" fill="url(#signal)" opacity=".9"/>
<rect x="286.5" y="297.5" width="90.2" height="404.9" rx="27.9" fill="url(#gold)"/>
<rect x="248.6" y="269.7" width="165.9" height="55.7" rx="27.9" fill="url(#gold)"/>
<rect x="248.6" y="674.6" width="165.9" height="55.7" rx="27.9" fill="url(#gold)"/>
<rect x="623.4" y="297.5" width="90.2" height="404.9" rx="27.9" fill="url(#gold)"/>
<rect x="585.5" y="269.7" width="165.9" height="55.7" rx="27.9" fill="url(#gold)"/>
<rect x="585.5" y="674.6" width="165.9" height="55.7" rx="27.9" fill="url(#gold)"/>
<path d="M 500.0 269.7 L 416.6 730.3 L 490.5 730.3 L 500.0 330.6 L 509.5 730.3 L 583.4 730.3 Z" fill="url(#gold)"/>
<rect x="445.5" y="512.4" width="109.1" height="40.1" rx="20.1" fill="#080B12" opacity=".94"/>
<path d="M 240.4 500.0 C 339.6 339.6, 660.4 660.4, 759.6 500.0" stroke="url(#signal)" stroke-width="7" stroke-linecap="round" opacity=".72"/></g></svg>