<svg xmlns="http://www.w3.org/2000/svg" width="1000" height="1414" viewBox="0 0 1000 1414" fill="none"><defs>
<radialGradient id="bg" cx="30%" cy="22%" r="90%"><stop offset="0%" stop-color="#151C2C"/><stop offset="62%" stop-color="#0E1422"/><stop offset="100%" stop-color="#080B12"/></radialGradient>
<linearGradient id="gold" x1="0" y1="0" x2="1000" y2="1414"><stop offset="0%" stop-color="#F3D995"/><stop offset="52%" stop-color="#D7B46A"/><stop offset="100%" stop-color="#9E7B34"/></linearGradient>
<linearGradient id="signal" x1="0" y1="0" x2="1000" y2="1414"><stop offset="0%" stop-color="#5EEAD4"/><stop offset="50%" stop-color="#4EA3FF"/><stop offset="100%" stop-color="#8B5CF6"/></linearGradient>
</defs><rect width="1000" height="1414" rx="436" fill="url(#bg)"/><g transform="translate(225,88) scale(0.55)"><circle cx="500" cy="500" r="420" stroke="url(#gold)" stroke-width="16" opacity=".96"/>
<polygon points="500.0,193.7 765.3,346.9 765.3,653.1 500.0,806.3 234.7,653.1 234.7,346.9" stroke="url(#gold)" stroke-width="10" fill="none" opacity=".80"/>
<circle cx="500" cy="500" r="259.5742752749558" stroke="#D7B46A" stroke-width="3" opacity=".32"/>
<circle cx="500" cy="500" r="160.42572472504415" stroke="#5EEAD4" stroke-width="3" opacity=".28"/>
<circle cx="240.4" cy="500.0" r="10" fill="url(#signal)" opacity=".9"/>
<circle cx="759.6" cy="500.0" r="10" fill="url(#signal)" opacity=".9"/>
<circle cx="500.0" cy="240.4" r="8" fill="url(#signal)" opacity=".9"/>
<circle cx="500.0" cy="759.6" r="8" fill="url(#signal)" opacity=".9"/>
<circle cx="339.6" cy="400.9" r="6" fill="url(#signal)" opacity=".9"/>
<circle cx="660.4" cy="599.1" r="6" fill="url(#signal)" opacity=".9"/>
<rect x="286.5" y="297.5" width="90.2" height="404.9" rx="27.9" fill="url(#gold)"/>
<rect x="248.6" y="269.7" width="165.9" height="55.7" rx="27.9" fill="url(#gold)"/>
<rect x="248.6" y="674.6" width="165.9" height="55.7" rx="27.9" fill="url(#gold)"/>
<rect x="623.4" y="297.5" width="90.2" height="404.9" rx="27.9" fill="url(#gold)"/>
<rect x="585.5" y="269.7" width="165.9" height="55.7" rx="27.9" fill="url(#gold)"/>
<rect x="585.5" y="674.6" width="165.9" height="55.7" rx="27.9" fill="url(#gold)"/>
<path d="M 500.0 269.7 L 416.6 730.3 L 490.5 730.3 L 500.0 330.6 L 509.5 730.3 L 583.4 730.3 Z" fill="url(#gold)"/>
<rect x="445.5" y="512.4" width="109.1" height="40.1" rx="20.1" fill="#080B12" opacity=".94"/>
<path d="M 240.4 500.0 C 339.6 339.6, 660.4 660.4, 759.6 500.0" stroke="url(#signal)" stroke-width="7" stroke-linecap="round" opacity=".72"/></g><text x="500.0" y="765" fill="#F8F5EC" font-family="Inter,Arial,sans-serif" font-size="126" font-weight="850" text-anchor="middle" letter-spacing="-3">IAI.ONE</text><text x="500.0" y="845" fill="url(#gold)" font-family="Inter,Arial,sans-serif" font-size="44" font-weight="700" text-anchor="middle" letter-spacing="6">COMPUTER</text><text x="500.0" y="910" fill="#8A94A7" font-family="Inter,Arial,sans-serif" font-size="28" font-weight="500" text-anchor="middle">Self-Upgrading Personal AI Computer System</text></svg>