<svg xmlns="http://www.w3.org/2000/svg" width="1600" height="900" viewBox="0 0 1600 900" fill="none"><defs>
<radialGradient id="bg" cx="30%" cy="22%" r="90%"><stop offset="0%" stop-color="#151C2C"/><stop offset="62%" stop-color="#0E1422"/><stop offset="100%" stop-color="#080B12"/></radialGradient>
<linearGradient id="gold" x1="0" y1="0" x2="1600" y2="900"><stop offset="0%" stop-color="#F3D995"/><stop offset="52%" stop-color="#D7B46A"/><stop offset="100%" stop-color="#9E7B34"/></linearGradient>
<linearGradient id="signal" x1="0" y1="0" x2="1600" y2="900"><stop offset="0%" stop-color="#5EEAD4"/><stop offset="50%" stop-color="#4EA3FF"/><stop offset="100%" stop-color="#8B5CF6"/></linearGradient>
</defs><rect width="1600" height="900" fill="url(#bg)"/><line x1="0" y1="0" x2="0" y2="900" stroke="#fff" opacity=".035"/><line x1="89" y1="0" x2="89" y2="900" stroke="#fff" opacity=".035"/><line x1="178" y1="0" x2="178" y2="900" stroke="#fff" opacity=".035"/><line x1="267" y1="0" x2="267" y2="900" stroke="#fff" opacity=".035"/><line x1="356" y1="0" x2="356" y2="900" stroke="#fff" opacity=".035"/><line x1="445" y1="0" x2="445" y2="900" stroke="#fff" opacity=".035"/><line x1="534" y1="0" x2="534" y2="900" stroke="#fff" opacity=".035"/><line x1="623" y1="0" x2="623" y2="900" stroke="#fff" opacity=".035"/><line x1="712" y1="0" x2="712" y2="900" stroke="#fff" opacity=".035"/><line x1="801" y1="0" x2="801" y2="900" stroke="#fff" opacity=".035"/><line x1="890" y1="0" x2="890" y2="900" stroke="#fff" opacity=".035"/><line x1="979" y1="0" x2="979" y2="900" stroke="#fff" opacity=".035"/><line x1="1068" y1="0" x2="1068" y2="900" stroke="#fff" opacity=".035"/><line x1="1157" y1="0" x2="1157" y2="900" stroke="#fff" opacity=".035"/><line x1="1246" y1="0" x2="1246" y2="900" stroke="#fff" opacity=".035"/><line x1="1335" y1="0" x2="1335" y2="900" stroke="#fff" opacity=".035"/><line x1="1424" y1="0" x2="1424" y2="900" stroke="#fff" opacity=".035"/><line x1="1513" y1="0" x2="1513" y2="900" stroke="#fff" opacity=".035"/><line x1="0" y1="0" x2="1600" y2="0" stroke="#fff" opacity=".035"/><line x1="0" y1="89" x2="1600" y2="89" stroke="#fff" opacity=".035"/><line x1="0" y1="178" x2="1600" y2="178" stroke="#fff" opacity=".035"/><line x1="0" y1="267" x2="1600" y2="267" stroke="#fff" opacity=".035"/><line x1="0" y1="356" x2="1600" y2="356" stroke="#fff" opacity=".035"/><line x1="0" y1="445" x2="1600" y2="445" stroke="#fff" opacity=".035"/><line x1="0" y1="534" x2="1600" y2="534" stroke="#fff" opacity=".035"/><line x1="0" y1="623" x2="1600" y2="623" stroke="#fff" opacity=".035"/><line x1="0" y1="712" x2="1600" y2="712" stroke="#fff" opacity=".035"/><line x1="0" y1="801" x2="1600" y2="801" stroke="#fff" opacity=".035"/><line x1="0" y1="890" x2="1600" y2="890" stroke="#fff" opacity=".035"/><circle cx="230" cy="210" r="144.0" stroke="url(#signal)" stroke-width="2" opacity=".14"/><circle cx="230" cy="210" r="89.0" stroke="url(#signal)" stroke-width="2" opacity=".14"/><circle cx="230" cy="210" r="55.0" stroke="url(#signal)" stroke-width="2" opacity=".14"/><circle cx="1160" cy="220" r="144.0" stroke="url(#signal)" stroke-width="2" opacity=".14"/><circle cx="1160" cy="220" r="89.0" stroke="url(#signal)" stroke-width="2" opacity=".14"/><circle cx="1160" cy="220" r="55.0" stroke="url(#signal)" stroke-width="2" opacity=".14"/><circle cx="700" cy="660" r="144.0" stroke="url(#signal)" stroke-width="2" opacity=".14"/><circle cx="700" cy="660" r="89.0" stroke="url(#signal)" stroke-width="2" opacity=".14"/><circle cx="700" cy="660" r="55.0" stroke="url(#signal)" stroke-width="2" opacity=".14"/><circle cx="1420" cy="730" r="144.0" stroke="url(#signal)" stroke-width="2" opacity=".14"/><circle cx="1420" cy="730" r="89.0" stroke="url(#signal)" stroke-width="2" opacity=".14"/><circle cx="1420" cy="730" r="55.0" stroke="url(#signal)" stroke-width="2" opacity=".14"/></svg>