<svg width="2200" height="720" viewBox="0 0 2200 720" xmlns="http://www.w3.org/2000/svg">
<rect width="2200" height="720" rx="64" fill="#06101E"/>
<g transform="translate(120 100) scale(.508)">

<g filter="url(#vfaGlow)">
<path d="M263 207L512 754L761 207" stroke="#D6B25E" stroke-width="23" stroke-linecap="round" stroke-linejoin="round"/>
<path d="M335 254L512 647L689 254" stroke="#39D7FF" stroke-width="11" stroke-linecap="round" stroke-linejoin="round" opacity="0.88"/>
<path d="M388 333V637" stroke="#F3E9D2" stroke-width="18" stroke-linecap="round"/>
<path d="M388 333H622" stroke="#F3E9D2" stroke-width="18" stroke-linecap="round"/>
<path d="M388 507H585" stroke="#F3E9D2" stroke-width="13" stroke-linecap="round" opacity="0.88"/>
<path d="M462 640L512 333L562 640" stroke="#F1D487" stroke-width="16" stroke-linecap="round" stroke-linejoin="round"/>
<path d="M486 520H538" stroke="#F1D487" stroke-width="10" stroke-linecap="round"/>
</g>
<ellipse cx="512" cy="512" rx="328" ry="203" transform="rotate(-18 512 512)" stroke="#D6B25E" stroke-width="7" opacity="0.65"/>
<ellipse cx="512" cy="512" rx="328" ry="203" transform="rotate(18 512 512)" stroke="#39D7FF" stroke-width="6" opacity="0.58"/>
<ellipse cx="512" cy="512" rx="328" ry="203" transform="rotate(88 512 512)" stroke="#F3E9D2" stroke-width="4" opacity="0.28"/>
<circle cx="752" cy="372" r="21" fill="#D6B25E" stroke="#06101E" stroke-width="6"/>
<circle cx="761" cy="639" r="21" fill="#39D7FF" stroke="#06101E" stroke-width="6"/>
<circle cx="237" cy="613" r="18" fill="#F3E9D2" stroke="#06101E" stroke-width="6"/>
<circle cx="272" cy="380" r="17" fill="#39D7FF" stroke="#06101E" stroke-width="6"/>
<circle cx="512" cy="512" r="56" fill="#06101E" stroke="#D6B25E" stroke-width="12"/>
<circle cx="512" cy="512" r="22" fill="#39D7FF"/>

</g>
<text x="730" y="310" font-family="Georgia, serif" font-size="180" fill="#F3E9D2" letter-spacing="8">VFA</text>
<text x="735" y="425" font-family="Inter, Arial, sans-serif" font-size="62" fill="#D6B25E">A VFA Intelligence Initiative</text>
<text x="735" y="515" font-family="Inter, Arial, sans-serif" font-size="46" fill="#F3E9D2" opacity=".82">Institutional Parent | Trust | Intelligence | Global Digital Infrastructure</text>
</svg>