<svg width="1024" height="1024" viewBox="0 0 1024 1024" fill="none" xmlns="http://www.w3.org/2000/svg">
  <title>Computer.iai.one Professional AI Computer Instance Icon</title>
  <desc>Professional symbol for Computer.iai.one: personal AI computer instance, IAI core, agent orbit, command path, security frame.</desc>
  <defs>
    <radialGradient id="bgGlow" cx="50%" cy="48%" r="58%">
      <stop offset="0%" stop-color="#39D7FF" stop-opacity="0.18"/>
      <stop offset="52%" stop-color="#0B1728" stop-opacity="0.82"/>
      <stop offset="100%" stop-color="#07111F" stop-opacity="1"/>
    </radialGradient>
    <filter id="softGlow" x="-40%" y="-40%" width="180%" height="180%">
      <feGaussianBlur stdDeviation="9" result="blur"/>
      <feMerge><feMergeNode in="blur"/><feMergeNode in="SourceGraphic"/></feMerge>
    </filter>
  </defs>
  
  <rect x="112" y="112" width="800" height="800" rx="178" fill="#0B1728" stroke="#D6B25E" stroke-width="42"/>
  <ellipse cx="512" cy="512" rx="338" ry="209" transform="rotate(-19 512 512)" stroke="#D6B25E" stroke-width="12" opacity="0.92"/>
  <ellipse cx="512" cy="512" rx="338" ry="209" transform="rotate(19 512 512)" stroke="#39D7FF" stroke-width="12" opacity="0.86"/>
  <ellipse cx="512" cy="512" rx="338" ry="209" transform="rotate(90 512 512)" stroke="#F3E9D2" stroke-width="8" opacity="0.24"/>
  <g filter="url(#softGlow)">
    <rect x="379" y="328" width="53" height="368" rx="26.5" fill="#F3E9D2"/>
    <rect x="486" y="328" width="53" height="368" rx="26.5" fill="#D6B25E"/>
    <rect x="593" y="328" width="53" height="368" rx="26.5" fill="#F3E9D2"/>
    <circle cx="405.5" cy="309" r="18" fill="#F3E9D2"/>
    <circle cx="512.5" cy="309" r="18" fill="#D6B25E"/>
    <circle cx="619.5" cy="309" r="18" fill="#F3E9D2"/>
    <circle cx="405.5" cy="715" r="18" fill="#F3E9D2"/>
    <circle cx="512.5" cy="715" r="18" fill="#D6B25E"/>
    <circle cx="619.5" cy="715" r="18" fill="#F3E9D2"/>
  </g>
  <circle cx="512" cy="512" r="60" fill="#07111F" stroke="#39D7FF" stroke-width="14"/>
  <circle cx="512" cy="512" r="25" fill="#D6B25E"/>
  <circle cx="781" cy="381" r="26" fill="#D6B25E" stroke="#07111F" stroke-width="6"/>
  <circle cx="789" cy="631" r="26" fill="#39D7FF" stroke="#07111F" stroke-width="6"/>
  <circle cx="237" cy="595" r="26" fill="#F3E9D2" stroke="#07111F" stroke-width="6"/>
  <circle cx="270" cy="385" r="26" fill="#39D7FF" stroke="#07111F" stroke-width="6"/>
  <path d="M328 742H696" stroke="#39D7FF" stroke-width="11" stroke-linecap="round" opacity="0.78"/>
  <circle cx="328" cy="742" r="15" fill="#39D7FF"/>
  <circle cx="512" cy="742" r="15" fill="#39D7FF"/>
  <circle cx="696" cy="742" r="15" fill="#39D7FF"/>
</svg>