<svg xmlns="http://www.w3.org/2000/svg" width="1200" height="630" viewBox="0 0 1200 630">

  <defs>
    <linearGradient id="goldGradient" x1="0%" y1="0%" x2="100%" y2="100%">
      <stop offset="0%" stop-color="#F2D98B"/>
      <stop offset="45%" stop-color="#D8B35A"/>
      <stop offset="100%" stop-color="#9A7134"/>
    </linearGradient>
    <linearGradient id="darkGradient" x1="0%" y1="0%" x2="100%" y2="100%">
      <stop offset="0%" stop-color="#0B171D"/>
      <stop offset="100%" stop-color="#071014"/>
    </linearGradient>
    <linearGradient id="signalGradient" x1="0%" y1="0%" x2="100%" y2="100%">
      <stop offset="0%" stop-color="#48D6C8"/>
      <stop offset="50%" stop-color="#3E7BFF"/>
      <stop offset="100%" stop-color="#6F5BFF"/>
    </linearGradient>
    <filter id="softShadow" x="-30%" y="-30%" width="160%" height="160%">
      <feDropShadow dx="0" dy="18" stdDeviation="16" flood-color="#000000" flood-opacity="0.28"/>
    </filter>
    <filter id="goldGlow" x="-60%" y="-60%" width="220%" height="220%">
      <feGaussianBlur stdDeviation="5" result="blur"/>
      <feColorMatrix in="blur" type="matrix" values="1 0 0 0 0.85  0 1 0 0 0.67  0 0 1 0 0.26  0 0 0 0.35 0" result="glow"/>
      <feMerge><feMergeNode in="glow"/><feMergeNode in="SourceGraphic"/></feMerge>
    </filter>
  </defs>
<rect width="1200" height="630" rx="0" fill="#071014"/>
<circle cx="1020" cy="100" r="260" fill="#D8B35A" opacity="0.12"/>
<circle cx="100" cy="590" r="260" fill="#48D6C8" opacity="0.08"/>
<g transform="translate(760 145) scale(0.55)">
  <path d="M256 64 L422 160 L422 352 L256 448 L90 352 L90 160 Z" fill="none" stroke="url(#goldGradient)" stroke-width="12" stroke-linejoin="round" filter="url(#softShadow)"/>
  <rect x="176" y="166" width="32" height="180" rx="16" fill="url(#goldGradient)"/>
  <path d="M236 346 L256 166 L276 346 Z" fill="url(#goldGradient)"/>
  <rect x="304" y="166" width="32" height="180" rx="16" fill="url(#goldGradient)"/>
</g>
<text x="72" y="182" font-family="Inter, Satoshi, ui-sans-serif, system-ui" font-weight="800" font-size="66" letter-spacing="-3" fill="#F4F1E8">Computer<tspan fill="url(#goldGradient)">.iai.one</tspan></text>
<text x="76" y="252" font-family="Inter, ui-sans-serif, system-ui" font-weight="600" font-size="28" fill="#EDE7D2">Hệ Máy Tính AI Cá Nhân Tự Nâng Cấp Có Kiểm Chứng</text>
<text x="76" y="308" font-family="Inter, ui-sans-serif, system-ui" font-weight="400" font-size="22" fill="#A7B0B7">Personal AI Computer • Super Apps • Agent Team • Data Vault • Verification Engine</text>
<path d="M76 390 H620" stroke="url(#goldGradient)" stroke-width="3" stroke-linecap="round"/>
<text x="76" y="456" font-family="Inter, ui-sans-serif, system-ui" font-weight="500" font-size="22" fill="#C6CCD1">Designed from Vietnamese as the primary language, built for global expansion.</text>
</svg>