<svg xmlns="http://www.w3.org/2000/svg" width="512" height="512" viewBox="0 0 512 512" role="img" aria-label="Computer.iai.one brand mark">
  <defs>
    <linearGradient id="gNavy" x1="0" y1="0" x2="1" y2="1"><stop offset="0" stop-color="#06111F"/><stop offset="0.55" stop-color="#081A2E"/><stop offset="1" stop-color="#1D4F7A"/></linearGradient>
    <linearGradient id="gGold" x1="0" y1="0" x2="1" y2="1"><stop offset="0" stop-color="#F3DFA2"/><stop offset="1" stop-color="#D9B56D"/></linearGradient>
    <linearGradient id="gCyan" x1="0" y1="0" x2="1" y2="1"><stop offset="0" stop-color="#8BDFFF"/><stop offset="1" stop-color="#38BDF8"/></linearGradient>
    <filter id="softGlow" x="-50%" y="-50%" width="200%" height="200%"><feGaussianBlur stdDeviation="12" result="blur"/><feColorMatrix in="blur" type="matrix" values="0 0 0 0 0.21 0 0 0 0 0.74 0 0 0 0 0.97 0 0 0 0.45 0"/><feBlend in="SourceGraphic"/></filter>
    <filter id="shadow" x="-20%" y="-20%" width="140%" height="140%"><feDropShadow dx="0" dy="18" stdDeviation="18" flood-color="#06111F" flood-opacity="0.22"/></filter>
    <pattern id="grid" width="32" height="32" patternUnits="userSpaceOnUse"><path d="M32 0H0V32" fill="none" stroke="rgba(255,255,255,.08)" stroke-width="1"/></pattern>
  </defs>
  
  
  <g transform="translate(0 0) scale(1)" filter="url(#shadow)">
    <rect x="88" y="72" width="336" height="336" rx="74" fill="#FFFFFF" stroke="#FFFFFF" stroke-width="10"/>
    <rect x="116" y="100" width="280" height="280" rx="54" fill="none" stroke="rgba(255,255,255,.12)" stroke-width="2"/>
    <path d="M150 346C190 280 226 222 262 166C298 222 334 280 374 346" fill="none" stroke="#FFFFFF" stroke-width="16" stroke-linecap="round" stroke-linejoin="round" filter="url(#softGlow)"/>
    <path d="M190 340V178" stroke="#FFFFFF" stroke-width="18" stroke-linecap="round"/>
    <path d="M256 340V178" stroke="#FFFFFF" stroke-width="18" stroke-linecap="round"/>
    <path d="M322 340V178" stroke="#FFFFFF" stroke-width="18" stroke-linecap="round"/>
    <circle cx="190" cy="178" r="9" fill="#FFFFFF"/>
    <circle cx="256" cy="178" r="9" fill="#FFFFFF"/>
    <circle cx="322" cy="178" r="9" fill="#FFFFFF"/>
    <path d="M120 246C162 214 205 198 256 198C307 198 350 214 392 246" fill="none" stroke="rgba(243,223,162,.45)" stroke-width="3"/>
    <circle cx="120" cy="246" r="7" fill="#FFFFFF"/>
    <circle cx="392" cy="246" r="7" fill="#FFFFFF"/>
    <circle cx="256" cy="408" r="14" fill="#FFFFFF"/>
    <path d="M256 408V444" stroke="#FFFFFF" stroke-width="8" stroke-linecap="round"/>
  </g>
</svg>