<svg xmlns="http://www.w3.org/2000/svg" width="1200" height="1200" viewBox="0 0 1200 1200" role="img" aria-label="Computer.iai.one brand mark">
  <defs>
    <linearGradient id="gNavy" x1="0" y1="0" x2="1" y2="1"><stop offset="0" stop-color="#06111F"/><stop offset="0.55" stop-color="#081A2E"/><stop offset="1" stop-color="#1D4F7A"/></linearGradient>
    <linearGradient id="gGold" x1="0" y1="0" x2="1" y2="1"><stop offset="0" stop-color="#F3DFA2"/><stop offset="1" stop-color="#D9B56D"/></linearGradient>
    <linearGradient id="gCyan" x1="0" y1="0" x2="1" y2="1"><stop offset="0" stop-color="#8BDFFF"/><stop offset="1" stop-color="#38BDF8"/></linearGradient>
    <filter id="softGlow" x="-50%" y="-50%" width="200%" height="200%"><feGaussianBlur stdDeviation="12" result="blur"/><feColorMatrix in="blur" type="matrix" values="0 0 0 0 0.21 0 0 0 0 0.74 0 0 0 0 0.97 0 0 0 0.45 0"/><feBlend in="SourceGraphic"/></filter>
    <filter id="shadow" x="-20%" y="-20%" width="140%" height="140%"><feDropShadow dx="0" dy="18" stdDeviation="18" flood-color="#06111F" flood-opacity="0.22"/></filter>
    <pattern id="grid" width="32" height="32" patternUnits="userSpaceOnUse"><path d="M32 0H0V32" fill="none" stroke="rgba(255,255,255,.08)" stroke-width="1"/></pattern>
  </defs>
  
  
  <rect width="1200" height="1200" fill="#06111F"/>
  <g opacity=".28">
  <circle cx="0" cy="0" r="5" fill="#D9B56D"/><circle cx="173" cy="277" r="5" fill="#D9B56D"/><circle cx="346" cy="554" r="5" fill="#D9B56D"/><circle cx="519" cy="831" r="5" fill="#D9B56D"/><circle cx="692" cy="1108" r="5" fill="#D9B56D"/><circle cx="865" cy="185" r="5" fill="#D9B56D"/><circle cx="1038" cy="462" r="5" fill="#D9B56D"/><circle cx="11" cy="739" r="5" fill="#D9B56D"/><circle cx="184" cy="1016" r="5" fill="#D9B56D"/><circle cx="357" cy="93" r="5" fill="#D9B56D"/><circle cx="530" cy="370" r="5" fill="#D9B56D"/><circle cx="703" cy="647" r="5" fill="#D9B56D"/><circle cx="876" cy="924" r="5" fill="#D9B56D"/><circle cx="1049" cy="1" r="5" fill="#D9B56D"/><circle cx="22" cy="278" r="5" fill="#D9B56D"/><circle cx="195" cy="555" r="5" fill="#D9B56D"/><circle cx="368" cy="832" r="5" fill="#D9B56D"/><circle cx="541" cy="1109" r="5" fill="#D9B56D"/><circle cx="714" cy="186" r="5" fill="#D9B56D"/><circle cx="887" cy="463" r="5" fill="#D9B56D"/><circle cx="1060" cy="740" r="5" fill="#D9B56D"/><circle cx="33" cy="1017" r="5" fill="#D9B56D"/><circle cx="206" cy="94" r="5" fill="#D9B56D"/><circle cx="379" cy="371" r="5" fill="#D9B56D"/><circle cx="552" cy="648" r="5" fill="#D9B56D"/><circle cx="725" cy="925" r="5" fill="#D9B56D"/><circle cx="898" cy="2" r="5" fill="#D9B56D"/><circle cx="1071" cy="279" r="5" fill="#D9B56D"/><circle cx="44" cy="556" r="5" fill="#D9B56D"/><circle cx="217" cy="833" r="5" fill="#D9B56D"/><circle cx="390" cy="1110" r="5" fill="#D9B56D"/><circle cx="563" cy="187" r="5" fill="#D9B56D"/><circle cx="736" cy="464" r="5" fill="#D9B56D"/><circle cx="909" cy="741" r="5" fill="#D9B56D"/><circle cx="1082" cy="1018" r="5" fill="#D9B56D"/><circle cx="55" cy="95" r="5" fill="#D9B56D"/><circle cx="228" cy="372" r="5" fill="#D9B56D"/><circle cx="401" cy="649" r="5" fill="#D9B56D"/><circle cx="574" cy="926" r="5" fill="#D9B56D"/><circle cx="747" cy="3" r="5" fill="#D9B56D"/>
  <path d="M0 0L11 739" stroke="#38BDF8" stroke-width="1"/><path d="M173 277L184 1016" stroke="#38BDF8" stroke-width="1"/><path d="M346 554L357 93" stroke="#38BDF8" stroke-width="1"/><path d="M519 831L530 370" stroke="#38BDF8" stroke-width="1"/><path d="M692 1108L703 647" stroke="#38BDF8" stroke-width="1"/><path d="M865 185L876 924" stroke="#38BDF8" stroke-width="1"/><path d="M1038 462L1049 1" stroke="#38BDF8" stroke-width="1"/><path d="M11 739L22 278" stroke="#38BDF8" stroke-width="1"/><path d="M184 1016L195 555" stroke="#38BDF8" stroke-width="1"/><path d="M357 93L368 832" stroke="#38BDF8" stroke-width="1"/><path d="M530 370L541 1109" stroke="#38BDF8" stroke-width="1"/><path d="M703 647L714 186" stroke="#38BDF8" stroke-width="1"/><path d="M876 924L887 463" stroke="#38BDF8" stroke-width="1"/><path d="M1049 1L1060 740" stroke="#38BDF8" stroke-width="1"/><path d="M22 278L33 1017" stroke="#38BDF8" stroke-width="1"/><path d="M195 555L206 94" stroke="#38BDF8" stroke-width="1"/><path d="M368 832L379 371" stroke="#38BDF8" stroke-width="1"/><path d="M541 1109L552 648" stroke="#38BDF8" stroke-width="1"/><path d="M714 186L725 925" stroke="#38BDF8" stroke-width="1"/><path d="M887 463L898 2" stroke="#38BDF8" stroke-width="1"/><path d="M1060 740L1071 279" stroke="#38BDF8" stroke-width="1"/><path d="M33 1017L44 556" stroke="#38BDF8" stroke-width="1"/><path d="M206 94L217 833" stroke="#38BDF8" stroke-width="1"/><path d="M379 371L390 1110" stroke="#38BDF8" stroke-width="1"/><path d="M552 648L563 187" stroke="#38BDF8" stroke-width="1"/><path d="M725 925L736 464" stroke="#38BDF8" stroke-width="1"/><path d="M898 2L909 741" stroke="#38BDF8" stroke-width="1"/><path d="M1071 279L1082 1018" stroke="#38BDF8" stroke-width="1"/><path d="M44 556L55 95" stroke="#38BDF8" stroke-width="1"/><path d="M217 833L228 372" stroke="#38BDF8" stroke-width="1"/>
  </g>

</svg>