<svg xmlns="http://www.w3.org/2000/svg" width="1600" height="1000" viewBox="0 0 1600 1000" role="img" aria-label="Computer.iai.one brand mark">
  <defs>
    <linearGradient id="gNavy" x1="0" y1="0" x2="1" y2="1"><stop offset="0" stop-color="#06111F"/><stop offset="0.55" stop-color="#081A2E"/><stop offset="1" stop-color="#1D4F7A"/></linearGradient>
    <linearGradient id="gGold" x1="0" y1="0" x2="1" y2="1"><stop offset="0" stop-color="#F3DFA2"/><stop offset="1" stop-color="#D9B56D"/></linearGradient>
    <linearGradient id="gCyan" x1="0" y1="0" x2="1" y2="1"><stop offset="0" stop-color="#8BDFFF"/><stop offset="1" stop-color="#38BDF8"/></linearGradient>
    <filter id="softGlow" x="-50%" y="-50%" width="200%" height="200%"><feGaussianBlur stdDeviation="12" result="blur"/><feColorMatrix in="blur" type="matrix" values="0 0 0 0 0.21 0 0 0 0 0.74 0 0 0 0 0.97 0 0 0 0.45 0"/><feBlend in="SourceGraphic"/></filter>
    <filter id="shadow" x="-20%" y="-20%" width="140%" height="140%"><feDropShadow dx="0" dy="18" stdDeviation="18" flood-color="#06111F" flood-opacity="0.22"/></filter>
    <pattern id="grid" width="32" height="32" patternUnits="userSpaceOnUse"><path d="M32 0H0V32" fill="none" stroke="rgba(255,255,255,.08)" stroke-width="1"/></pattern>
  </defs>
  
  
  <rect width="1600" height="1000" rx="50" fill="#F7F1E4"/>
  <rect x="70" y="70" width="1460" height="860" rx="44" fill="white" stroke="#EFE4CF"/>
  <rect x="110" y="120" width="1380" height="110" rx="26" fill="#06111F"/>
  <text x="150" y="190" font-family="Inter, Arial, sans-serif" font-size="32" font-weight="700" fill="white">My AI Computer Instance</text>
  <text x="1260" y="190" font-family="Inter, Arial, sans-serif" font-size="24" fill="#F3DFA2">Verified</text>
  <g transform="translate(120 285)">
  <g transform="translate(115.19999999999999 115.19999999999999) scale(0.55)" filter="url(#shadow)">
    <rect x="88" y="72" width="336" height="336" rx="74" fill="url(#gNavy)" stroke="url(#gGold)" stroke-width="10"/>
    <rect x="116" y="100" width="280" height="280" rx="54" fill="none" stroke="rgba(255,255,255,.12)" stroke-width="2"/>
    <path d="M150 346C190 280 226 222 262 166C298 222 334 280 374 346" fill="none" stroke="url(#gCyan)" stroke-width="16" stroke-linecap="round" stroke-linejoin="round" filter="url(#softGlow)"/>
    <path d="M190 340V178" stroke="#D9B56D" stroke-width="18" stroke-linecap="round"/>
    <path d="M256 340V178" stroke="#D9B56D" stroke-width="18" stroke-linecap="round"/>
    <path d="M322 340V178" stroke="#D9B56D" stroke-width="18" stroke-linecap="round"/>
    <circle cx="190" cy="178" r="9" fill="#38BDF8"/>
    <circle cx="256" cy="178" r="9" fill="#38BDF8"/>
    <circle cx="322" cy="178" r="9" fill="#38BDF8"/>
    <path d="M120 246C162 214 205 198 256 198C307 198 350 214 392 246" fill="none" stroke="rgba(243,223,162,.45)" stroke-width="3"/>
    <circle cx="120" cy="246" r="7" fill="url(#gGold)"/>
    <circle cx="392" cy="246" r="7" fill="url(#gGold)"/>
    <circle cx="256" cy="408" r="14" fill="url(#gGold)"/>
    <path d="M256 408V444" stroke="url(#gGold)" stroke-width="8" stroke-linecap="round"/>
  </g></g>
  <text x="430" y="365" font-family="Source Serif 4, Georgia, serif" font-size="58" font-weight="700" fill="#06111F">AI Business Computer</text>
  <text x="430" y="425" font-family="Inter, Arial, sans-serif" font-size="26" fill="#374151">Data Vault · Memory · Super Apps · Agent Court</text>
  <g font-family="Inter, Arial, sans-serif" font-size="22" fill="#06111F">
    <rect x="430" y="500" width="220" height="80" rx="18" fill="#F7F1E4" stroke="#EFE4CF"/><text x="460" y="550">Office</text>
    <rect x="680" y="500" width="220" height="80" rx="18" fill="#F7F1E4" stroke="#EFE4CF"/><text x="710" y="550">Research</text>
    <rect x="930" y="500" width="220" height="80" rx="18" fill="#F7F1E4" stroke="#EFE4CF"/><text x="960" y="550">Finance</text>
    <rect x="1180" y="500" width="220" height="80" rx="18" fill="#F7F1E4" stroke="#EFE4CF"/><text x="1210" y="550">Security</text>
  </g>
  <path d="M150 720H1450" stroke="#EFE4CF" stroke-width="2"/>
  <text x="150" y="790" font-family="Inter, Arial, sans-serif" font-size="26" font-weight="700" fill="#1D4F7A">Command Kernel</text>
  <text x="150" y="840" font-family="Inter, Arial, sans-serif" font-size="24" fill="#374151">Ask by phone, sync your files, let the agent team verify before final delivery.</text>

</svg>